<svg xmlns="http://www.w3.org/2000/svg" viewBox="0 0 700 350" width="700" height="350">
	<style>
		tspan { white-space:pre }
		.shp0 { fill: #000000 }
	</style>
	<path id="Layer" fill-rule="evenodd" class="shp0" d="M336.7 148.66C338.16 146.84 342.33 144.49 342.33 144.49C342.33 144.49 347.09 141.53 347.96 142.07C348.85 142.59 348.7 148.33 348.7 148.33C348.7 148.33 348.66 153.99 347.74 155.62C346.82 157.25 342.06 160.1 342.06 160.1C342.06 160.1 337.89 162.82 336.46 162.77C335.05 162.72 335.33 156.63 335.33 156.43C335.33 156.25 335.26 150.45 336.7 148.66ZM338.23 185.42C338.2 184.39 343.12 181.7 343.12 181.7C343.12 181.7 347.2 179.22 349.51 178.83C351.76 178.46 356.79 181.36 356.95 181.45C357.12 181.55 362.57 184.29 361.93 185.54C361.27 186.81 356.85 189.12 356.85 189.12C356.85 189.12 352.04 191.87 350.17 191.87C348.31 191.87 343.33 189.13 343.33 189.13C343.33 189.13 338.27 186.45 338.23 185.42ZM336.16 181.09C334.75 181.04 335.02 174.95 335.02 174.76C335.02 174.56 334.96 168.77 336.39 166.98C337.86 165.17 342.02 162.81 342.02 162.81C342.02 162.81 346.78 159.86 347.66 160.39C348.53 160.92 348.39 166.65 348.39 166.65C348.39 166.65 348.35 172.32 347.43 173.95C346.51 175.58 341.75 178.43 341.75 178.43C341.75 178.43 337.59 181.15 336.16 181.09ZM367.3 158.08C367.3 158.08 367.15 152.35 368.04 151.82C368.91 151.28 373.67 154.24 373.67 154.24C373.67 154.24 377.84 156.6 379.3 158.41C380.75 160.21 380.67 166 380.67 166.19C380.67 166.39 380.94 172.47 379.54 172.52C378.11 172.58 373.94 169.86 373.94 169.86C373.94 169.86 369.18 167.01 368.25 165.38C367.35 163.76 367.3 158.08 367.3 158.08ZM363.61 166.98C365.05 168.77 364.97 174.56 364.97 174.75C364.98 174.95 365.25 181.04 363.85 181.09C362.42 181.15 358.25 178.43 358.25 178.43C358.25 178.43 353.49 175.58 352.57 173.95C351.66 172.32 351.6 166.65 351.6 166.65C351.6 166.65 351.47 160.92 352.34 160.39C353.22 159.86 357.98 162.81 357.98 162.81C357.98 162.81 362.14 165.17 363.61 166.98ZM352.27 155.62C351.35 153.99 351.3 148.33 351.3 148.33C351.3 148.33 351.15 142.59 352.04 142.06C352.91 141.53 357.67 144.49 357.67 144.49C357.67 144.49 361.84 146.84 363.3 148.66C364.74 150.45 364.67 156.25 364.67 156.43C364.68 156.63 364.94 162.72 363.54 162.77C362.11 162.82 357.94 160.1 357.94 160.1C357.94 160.1 353.18 157.25 352.27 155.62L352.27 155.62ZM331.43 183.71C330.52 185.33 325.75 188.18 325.75 188.18C325.75 188.18 321.59 190.9 320.15 190.86C318.76 190.8 319.02 184.71 319.02 184.51C319.02 184.32 318.95 178.53 320.39 176.74C321.86 174.92 326.02 172.57 326.02 172.57C326.02 172.57 330.77 169.62 331.66 170.14C332.54 170.68 332.4 176.41 332.4 176.41C332.4 176.41 332.35 182.07 331.43 183.71ZM373.08 190.15C373.26 190.24 378.71 192.99 378.05 194.24C377.4 195.51 372.98 197.81 372.98 197.81C372.98 197.81 368.17 200.58 366.29 200.58C364.44 200.58 359.46 197.84 359.46 197.84C359.46 197.84 354.4 195.15 354.36 194.13C354.33 193.1 359.24 190.41 359.24 190.41C359.24 190.41 363.34 187.92 365.64 187.54C367.9 187.16 372.92 190.06 373.08 190.15ZM320.46 172.52C319.06 172.47 319.33 166.39 319.34 166.19C319.34 166 319.26 160.21 320.7 158.41C322.16 156.6 326.33 154.25 326.33 154.25C326.33 154.25 331.09 151.29 331.98 151.82C332.85 152.36 332.71 158.07 332.71 158.07C332.71 158.07 332.65 163.75 331.74 165.38C330.82 167.01 326.06 169.86 326.06 169.86C326.06 169.86 321.89 172.58 320.46 172.52ZM380.98 184.51C380.98 184.71 381.26 190.8 379.85 190.86C378.41 190.91 374.24 188.19 374.24 188.19C374.24 188.19 369.49 185.33 368.57 183.71C367.66 182.07 367.6 176.41 367.6 176.41C367.6 176.41 367.47 170.68 368.34 170.14C369.23 169.62 373.98 172.57 373.98 172.57C373.98 172.57 378.15 174.92 379.61 176.74C381.05 178.53 380.98 184.32 380.98 184.51ZM345.59 194.7C344.93 195.97 340.52 198.28 340.52 198.28C340.52 198.28 335.7 201.03 333.83 201.03C331.96 201.03 326.99 198.3 326.99 198.3C326.99 198.3 321.93 195.62 321.89 194.59C321.86 193.56 326.77 190.86 326.77 190.86C326.77 190.86 330.87 188.38 333.16 188C335.42 187.62 340.44 190.52 340.6 190.61C340.78 190.71 346.23 193.45 345.59 194.7ZM356.74 199.31C356.91 199.41 362.36 202.16 361.71 203.41C361.06 204.68 356.64 206.98 356.64 206.98C356.64 206.98 351.82 209.74 349.96 209.74C348.09 209.74 343.12 207.01 343.12 207.01C343.12 207.01 338.06 204.33 338.03 203.3C337.99 202.27 342.9 199.56 342.9 199.56C342.9 199.56 347 197.09 349.3 196.71C351.56 196.32 356.58 199.22 356.74 199.31L356.74 199.31Z" />
</svg>
